# Blender v2.90.0 OBJ File: 'DoorSolid.blend'
# www.blender.org
mtllib DoorSolid.mtl
o Plane
v -1.000000 0.000000 1.000000
v -1.000000 4.758334 1.000000
v 2.963277 0.000000 1.000000
v 2.963277 0.000000 0.805556
v 2.963277 4.758334 1.000000
v 2.963277 4.758334 0.805556
v -0.862091 4.758334 0.805556
v -0.862091 4.758334 1.000000
v -0.862091 0.000000 0.805556
v -0.862091 0.000000 1.000000
v 1.227431 0.000000 0.805556
v 1.227430 0.000000 1.000000
v 1.227431 4.758334 1.000000
v 1.227431 4.758334 0.805556
v 0.882726 0.000000 0.805556
v 0.882726 4.758334 1.000000
v 0.882726 4.758334 0.805556
v 0.882726 0.000000 1.000000
vt 0.600182 0.797690
vt 0.600182 0.999861
vt 0.577535 0.999861
vt 0.577535 0.797690
vt 0.000139 0.689312
vt 0.554332 0.689312
vt 0.554332 0.891482
vt 0.000139 0.891482
vt 0.577535 0.554326
vt 0.577535 0.000139
vt 0.600182 0.000139
vt 0.600182 0.554326
vt 0.554610 0.554324
vt 0.554610 0.000139
vt 0.577257 0.000139
vt 0.577257 0.554324
vt 0.000139 0.243501
vt 0.554332 0.243501
vt 0.554332 0.445672
vt 0.000139 0.445672
vt 0.600460 0.554332
vt 0.600460 0.000139
vt 0.616522 0.000139
vt 0.616522 0.554332
vt 0.554610 0.756497
vt 0.577257 0.756497
vt 0.554610 0.796644
vt 0.577257 0.796644
vt 0.000139 0.203354
vt 0.554332 0.203354
vt 0.000139 0.649165
vt 0.554332 0.649165
vt 0.600182 0.757542
vt 0.577535 0.757542
vt 0.000139 0.445950
vt 0.554332 0.445950
vt 0.000139 0.000139
vt 0.554332 0.000139
vt 0.554610 0.999861
vt 0.577257 0.999861
vn 0.0000 1.0000 0.0000
vn 0.0000 0.0000 -1.0000
vn -1.0000 0.0000 0.0000
vn 1.0000 0.0000 0.0000
vn 0.0000 0.0000 1.0000
vn 0.0000 -1.0000 0.0000
usemtl Material.001
s off
f 13/1/1 5/2/1 6/3/1 14/4/1
f 11/5/2 14/6/2 6/7/2 4/8/2
f 7/9/3 9/10/3 10/11/3 8/12/3
f 4/13/4 6/14/4 5/15/4 3/16/4
f 13/17/5 12/18/5 3/19/5 5/20/5
f 10/21/5 8/22/5 2/23/5 1/24/5
f 11/25/6 4/13/6 3/16/6 12/26/6
f 15/27/6 11/25/6 12/26/6 18/28/6
f 16/29/5 18/30/5 12/18/5 13/17/5
f 15/31/2 17/32/2 14/6/2 11/5/2
f 16/33/1 13/1/1 14/4/1 17/34/1
f 8/12/1 16/33/1 17/34/1 7/9/1
f 9/35/2 7/36/2 17/32/2 15/31/2
f 8/37/5 10/38/5 18/30/5 16/29/5
f 9/39/6 15/27/6 18/28/6 10/40/6
