# Blender v2.90.0 OBJ File: 'DoorOpen.blend'
# www.blender.org
mtllib DoorOpen.mtl
o Plane
v -1.000000 0.000000 1.000000
v 2.536619 4.131682 0.805556
v -1.000000 0.000000 0.805556
v 2.536619 2.545571 0.805556
v -1.000000 4.758334 0.805556
v -1.000000 4.758334 1.000000
v 2.536619 4.131682 1.000000
v 2.536619 2.545571 1.000000
v 2.963277 0.000000 1.000000
v 2.963277 0.000000 0.805556
v 2.963277 4.758334 1.000000
v 2.963277 4.758334 0.805556
v -1.000000 2.545571 0.805556
v -1.000000 4.131682 0.805556
v 2.536619 4.758334 1.000000
v 2.536619 0.000000 1.000000
v 2.536619 0.000000 0.805556
v 2.536619 4.758334 0.805556
v -1.000000 4.131682 1.000000
v -1.000000 2.545571 1.000000
v 2.963277 4.131682 0.805556
v 2.963277 2.545571 0.805556
v 2.963277 2.545571 1.000000
v 2.963277 4.131682 1.000000
v -0.631376 4.131682 0.805556
v -0.631376 2.545571 0.805556
v -0.631376 0.000000 0.805556
v -0.631376 4.758334 1.000000
v -0.631376 4.758334 0.805556
v -0.631376 0.000000 1.000000
v -0.631376 2.545571 1.000000
v -0.631376 4.131682 1.000000
v -1.180002 0.000000 1.000000
v -1.180002 4.758334 1.000000
v -1.180002 2.545571 1.000000
v -1.180002 4.131682 1.000000
vt 0.909351 0.594469
vt 0.909351 0.545565
vt 0.931638 0.545565
vt 0.931638 0.594469
vt 0.049065 0.000161
vt 0.049065 0.291936
vt 0.000161 0.291936
vt 0.000161 0.000161
vt 0.412183 0.291936
vt 0.454435 0.291936
vt 0.454435 0.473737
vt 0.412183 0.473737
vt 0.049065 0.545564
vt 0.000161 0.545564
vt 0.000161 0.473737
vt 0.049064 0.473737
vt 0.412183 0.545564
vt 0.909351 0.473737
vt 0.931638 0.473737
vt 0.503660 0.253789
vt 0.454756 0.253789
vt 0.454756 0.071988
vt 0.503660 0.071988
vt 0.909352 0.957588
vt 0.931639 0.957588
vt 0.909030 0.253789
vt 0.866778 0.253789
vt 0.866778 0.071988
vt 0.909030 0.071988
vt 0.931960 0.412186
vt 0.931960 0.049065
vt 0.954248 0.049065
vt 0.954247 0.412186
vt 0.909351 0.000161
vt 0.931639 0.000161
vt 0.931638 0.291936
vt 0.909351 0.291936
vt 0.977178 0.071988
vt 0.977178 0.000161
vt 0.997810 0.000161
vt 0.997810 0.071988
vt 0.866778 0.000161
vt 0.909030 0.000161
vt 0.503660 0.545564
vt 0.454756 0.545564
vt 0.454756 0.000161
vt 0.503660 0.000161
vt 0.866778 0.545564
vt 0.412183 0.000161
vt 0.931960 0.000161
vt 0.954248 0.000161
vt 0.454435 0.000161
vt 0.909030 0.545564
vt 0.931960 0.454438
vt 0.954247 0.454438
vt 0.909352 0.999839
vt 0.931639 0.999839
vt 0.454435 0.545565
vt 0.000161 0.545886
vt 0.181962 0.545886
vt 0.181962 0.568173
vt 0.000161 0.568173
vt 0.954569 0.545082
vt 0.954569 0.363282
vt 0.976856 0.363282
vt 0.976856 0.545082
vt 0.954569 0.000161
vt 0.976856 0.000161
vt 0.954569 0.908200
vt 0.976856 0.908200
vt 0.977178 0.545564
vt 0.977178 0.253788
vt 0.997810 0.253788
vt 0.997810 0.545564
vt 0.954247 0.746212
vt 0.954247 0.928012
vt 0.954248 0.999839
vt 0.931960 0.999839
vt 0.931960 0.928012
vt 0.931960 0.746212
vn 0.0000 1.0000 0.0000
vn 0.0000 0.0000 -1.0000
vn 1.0000 0.0000 0.0000
vn 0.0000 0.0000 1.0000
vn 0.0000 -1.0000 0.0000
vn -1.0000 0.0000 0.0000
usemtl Material
s off
f 15/1/1 11/2/1 12/3/1 18/4/1
f 17/5/2 4/6/2 22/7/2 10/8/2
f 26/9/2 13/10/2 14/11/2 25/12/2
f 18/13/2 12/14/2 21/15/2 2/16/2
f 29/17/2 18/13/2 2/16/2 25/12/2
f 24/18/3 21/19/3 12/3/3 11/2/3
f 8/20/4 23/21/4 24/22/4 7/23/4
f 28/24/1 15/1/1 18/4/1 29/25/1
f 20/26/4 31/27/4 32/28/4 19/29/4
f 22/7/2 4/6/2 2/16/2 21/15/2
f 27/30/5 17/31/5 16/32/5 30/33/5
f 9/34/3 10/35/3 22/36/3 23/37/3
f 23/37/3 22/36/3 21/19/3 24/18/3
f 19/38/4 6/39/4 34/40/4 36/41/4
f 32/28/4 28/42/4 6/43/4 19/29/4
f 16/44/4 9/45/4 23/21/4 8/20/4
f 24/22/4 11/46/4 15/47/4 7/23/4
f 30/48/4 16/44/4 8/20/4 31/27/4
f 27/49/2 26/9/2 4/6/2 17/5/2
f 17/31/5 10/50/5 9/51/5 16/32/5
f 3/52/2 13/10/2 26/9/2 27/49/2
f 1/53/4 30/48/4 31/27/4 20/26/4
f 7/23/4 15/47/4 28/42/4 32/28/4
f 3/54/5 27/30/5 30/33/5 1/55/5
f 6/56/1 28/24/1 29/25/1 5/57/1
f 5/58/2 29/17/2 25/12/2 14/11/2
f 32/59/3 31/60/3 26/61/3 25/62/3
f 2/63/6 4/64/6 8/65/6 7/66/6
f 26/67/1 31/68/1 8/65/1 4/64/1
f 25/69/5 2/63/5 7/66/5 32/70/5
f 1/71/4 20/72/4 35/73/4 33/74/4
f 20/72/4 19/38/4 36/41/4 35/73/4
f 3/54/6 1/55/6 20/75/6 19/76/6 6/77/6 5/78/6 14/79/6 13/80/6
